<svg version="1.1" xmlns="http://www.w3.org/2000/svg" viewBox="0 0 889.25 331.21410000000014" width="889.25" height="331.21410000000014">
  <!-- svg-source:excalidraw -->
  
  <defs>
    <style class="style-fonts">
      @font-face {
        font-family: "Virgil";
        src: url("https://excalidraw.com/Virgil.woff2");
      }
      @font-face {
        font-family: "Cascadia";
        src: url("https://excalidraw.com/Cascadia.woff2");
      }
      @font-face {
        font-family: "Assistant";
        src: url("https://excalidraw.com/Assistant-Regular.woff2");
      }
    </style>
    
  </defs>
  <g stroke-linecap="round" transform="translate(10 10) rotate(0 95.75 40.75)"><path d="M20.38 0 C80.05 0.26, 139.4 0.55, 171.13 0 M20.38 0 C78.5 0.27, 138.29 -0.43, 171.13 0 M171.13 0 C184.22 -1.27, 192.89 7.34, 191.5 20.38 M171.13 0 C183.38 -2.23, 190.16 6.03, 191.5 20.38 M191.5 20.38 C190.37 32.97, 191.9 48.36, 191.5 61.13 M191.5 20.38 C192.13 29.43, 192.45 37.6, 191.5 61.13 M191.5 61.13 C191.2 75.82, 184.11 82.41, 171.13 81.5 M191.5 61.13 C189.82 75.05, 184.68 80.49, 171.13 81.5 M171.13 81.5 C138.43 81.35, 106.4 79.37, 20.38 81.5 M171.13 81.5 C123.11 81.37, 75.97 81.38, 20.38 81.5 M20.38 81.5 C5.12 79.52, -1.68 74.19, 0 61.13 M20.38 81.5 C6.5 82.49, 1.42 74.63, 0 61.13 M0 61.13 C0.06 47.88, -0.94 33.26, 0 20.38 M0 61.13 C0.78 52.28, 0.74 44.27, 0 20.38 M0 20.38 C-0.95 7.36, 5.14 1.05, 20.38 0 M0 20.38 C2.11 8.61, 6.52 -0.03, 20.38 0" stroke="#1e1e1e" stroke-width="2" fill="none"></path></g><g transform="translate(61.450035095214844 38.25) rotate(0 44.299964904785156 12.5)"><text x="44.299964904785156" y="17.52" font-family="Virgil, Segoe UI Emoji" font-size="20px" fill="#1e1e1e" text-anchor="middle" style="white-space: pre;" direction="ltr" dominant-baseline="alphabetic">real func</text></g><g stroke-linecap="round" transform="translate(10 100.50000019060053) rotate(0 95.75 34.107049608355055)"><path d="M17.05 0 C52.86 -0.47, 83.45 -1.36, 174.45 0 M17.05 0 C52.7 -0.81, 90.55 -1.51, 174.45 0 M174.45 0 C187.16 -0.74, 190.41 4.63, 191.5 17.05 M174.45 0 C185.67 0.32, 189.63 4.16, 191.5 17.05 M191.5 17.05 C190.62 27.72, 191.23 37.64, 191.5 51.16 M191.5 17.05 C191.78 28.64, 192.03 41.95, 191.5 51.16 M191.5 51.16 C191.38 62.08, 183.9 67.86, 174.45 68.21 M191.5 51.16 C190.67 63.77, 184.06 65.95, 174.45 68.21 M174.45 68.21 C117.4 69.31, 57.65 69.51, 17.05 68.21 M174.45 68.21 C139.91 68.52, 103.39 66.7, 17.05 68.21 M17.05 68.21 C7.11 68.42, -1.36 61.55, 0 51.16 M17.05 68.21 C5.19 68.51, -0.02 61.45, 0 51.16 M0 51.16 C0.37 45.53, 0.75 38.05, 0 17.05 M0 51.16 C0.51 39.32, 0.14 28.56, 0 17.05 M0 17.05 C1.59 5.58, 7.43 0.36, 17.05 0 M0 17.05 C-2.21 7.02, 4.55 0.56, 17.05 0" stroke="#1e1e1e" stroke-width="2" fill="none"></path></g><g transform="translate(91.21001434326172 122.10704979895559) rotate(0 14.539985656738281 12.5)"><text x="14.539985656738281" y="17.52" font-family="Virgil, Segoe UI Emoji" font-size="20px" fill="#1e1e1e" text-anchor="middle" style="white-space: pre;" direction="ltr" dominant-baseline="alphabetic">jmp</text></g><g stroke-linecap="round" transform="translate(10 177.71410000000003) rotate(0 95.75 71.75000000000006)"><path d="M32 0 C76.83 -1.54, 125.09 -1.06, 159.5 0 M32 0 C77.61 0.25, 123.74 -0.95, 159.5 0 M159.5 0 C182.2 0.66, 191.54 8.75, 191.5 32 M159.5 0 C181.44 -0.3, 193.57 10.69, 191.5 32 M191.5 32 C191.97 54.44, 191.31 75.52, 191.5 111.5 M191.5 32 C192.92 51.44, 191.33 73.39, 191.5 111.5 M191.5 111.5 C191.67 133.14, 179.55 145.15, 159.5 143.5 M191.5 111.5 C190.88 130.6, 182.41 145.34, 159.5 143.5 M159.5 143.5 C123.95 143.06, 90.38 141.65, 32 143.5 M159.5 143.5 C123.94 142.12, 89.85 142.43, 32 143.5 M32 143.5 C10.75 142.54, 1.33 132.31, 0 111.5 M32 143.5 C11.4 142.21, 0.99 134.1, 0 111.5 M0 111.5 C-0.77 86.73, 1.46 59.62, 0 32 M0 111.5 C-0.33 81.17, -0.89 50.17, 0 32 M0 32 C0.06 11.32, 9.13 -0.11, 32 0 M0 32 C1.08 8.85, 8.47 -2.29, 32 0" stroke="#1e1e1e" stroke-width="2" fill="none"></path></g><g transform="translate(84.03002166748047 236.96410000000003) rotate(0 21.71997833251953 12.5)"><text x="21.71997833251953" y="17.52" font-family="Virgil, Segoe UI Emoji" font-size="20px" fill="#1e1e1e" text-anchor="middle" style="white-space: pre;" direction="ltr" dominant-baseline="alphabetic">code</text></g><g stroke-linecap="round" transform="translate(348.875 10) rotate(0 95.75 40.75)"><path d="M20.38 0 C53.75 2, 88.46 -0.22, 171.13 0 M20.38 0 C62.99 1.59, 107.93 -0.01, 171.13 0 M171.13 0 C183.16 -1.06, 192.91 5.01, 191.5 20.38 M171.13 0 C183.17 0.93, 193.09 5.94, 191.5 20.38 M191.5 20.38 C193.22 27.74, 190.93 40.13, 191.5 61.13 M191.5 20.38 C191.78 30.55, 190.78 39.48, 191.5 61.13 M191.5 61.13 C193.48 75.34, 184.64 79.91, 171.13 81.5 M191.5 61.13 C191.06 76.3, 186.98 79.24, 171.13 81.5 M171.13 81.5 C117.41 82.55, 58.73 80.23, 20.38 81.5 M171.13 81.5 C139.41 83.33, 107.46 82.38, 20.38 81.5 M20.38 81.5 C5.22 82.51, 0.2 76.53, 0 61.13 M20.38 81.5 C8.97 80.95, -2.19 75.44, 0 61.13 M0 61.13 C-1.48 48.24, 0.91 34.92, 0 20.38 M0 61.13 C0.15 49.08, -0.44 36.14, 0 20.38 M0 20.38 C-0.27 6.79, 8.37 1.13, 20.38 0 M0 20.38 C-1.25 6.83, 6.59 -0.69, 20.38 0" stroke="#1e1e1e" stroke-width="2" fill="none"></path></g><g transform="translate(398.50504302978516 38.25) rotate(0 46.119956970214844 12.5)"><text x="46.119956970214844" y="17.52" font-family="Virgil, Segoe UI Emoji" font-size="20px" fill="#1e1e1e" text-anchor="middle" style="white-space: pre;" direction="ltr" dominant-baseline="alphabetic">hook func</text></g><g stroke-linecap="round" transform="translate(687.75 10) rotate(0 95.75 40.75)"><path d="M20.38 0 C55.54 -0.49, 90.71 2.68, 171.13 0 M20.38 0 C71.58 0.52, 125.06 -0.51, 171.13 0 M171.13 0 C186.7 0.43, 190.88 4.91, 191.5 20.38 M171.13 0 C183.62 -1.88, 193.61 6.27, 191.5 20.38 M191.5 20.38 C191.63 30.64, 190.66 41.92, 191.5 61.13 M191.5 20.38 C191.88 32.7, 192.23 44.63, 191.5 61.13 M191.5 61.13 C189.87 73.26, 184.31 82.43, 171.13 81.5 M191.5 61.13 C190.65 76.3, 186.97 83.56, 171.13 81.5 M171.13 81.5 C112.07 82.19, 55.41 83.59, 20.38 81.5 M171.13 81.5 C137.7 81.45, 105.86 82.88, 20.38 81.5 M20.38 81.5 C6.34 82.42, -0.93 76.55, 0 61.13 M20.38 81.5 C8.62 79.6, 1.9 74.37, 0 61.13 M0 61.13 C0.13 43.94, 0.97 32.26, 0 20.38 M0 61.13 C-0.93 49.4, 0.26 38.49, 0 20.38 M0 20.38 C-1.08 8.27, 7.61 1.97, 20.38 0 M0 20.38 C-2.18 7, 8.37 0.75, 20.38 0" stroke="#1e1e1e" stroke-width="2" fill="none"></path></g><g transform="translate(755.6200256347656 38.25) rotate(0 27.879974365234375 12.5)"><text x="27.879974365234375" y="17.52" font-family="Virgil, Segoe UI Emoji" font-size="20px" fill="#1e1e1e" text-anchor="middle" style="white-space: pre;" direction="ltr" dominant-baseline="alphabetic">tramp</text></g><g stroke-linecap="round" transform="translate(687.75 100.5) rotate(0 95.75 71.75000000000003)"><path d="M32 0 C78.68 -2.62, 125.42 -2.58, 159.5 0 M32 0 C67.35 -0.53, 102.47 -1.6, 159.5 0 M159.5 0 C182.71 -1.07, 190.09 11.11, 191.5 32 M159.5 0 C181.13 2.28, 189.79 8.89, 191.5 32 M191.5 32 C191.19 47.53, 190.79 65.4, 191.5 111.5 M191.5 32 C192.41 58.83, 192.6 88.38, 191.5 111.5 M191.5 111.5 C191.1 133.8, 180.27 145.17, 159.5 143.5 M191.5 111.5 C193.59 131.6, 181.15 142.36, 159.5 143.5 M159.5 143.5 C120.38 145.07, 81.65 143.1, 32 143.5 M159.5 143.5 C111.49 142.97, 62.48 141.93, 32 143.5 M32 143.5 C10.45 144.91, 1.85 132.17, 0 111.5 M32 143.5 C10.48 142.3, -0.76 134.91, 0 111.5 M0 111.5 C0.04 87.72, -0.69 64.86, 0 32 M0 111.5 C1.04 89.42, 0.27 67.02, 0 32 M0 32 C0.56 11.11, 9.38 1.66, 32 0 M0 32 C1.55 11.77, 10.94 -1.13, 32 0" stroke="#1e1e1e" stroke-width="2" fill="none"></path></g><g transform="translate(742.920036315918 159.75) rotate(0 40.57996368408203 12.5)"><text x="40.57996368408203" y="17.52" font-family="Virgil, Segoe UI Emoji" font-size="20px" fill="#1e1e1e" text-anchor="middle" style="white-space: pre;" direction="ltr" dominant-baseline="alphabetic">old code</text></g><g stroke-linecap="round" transform="translate(687.75 253.0000003916449) rotate(0 95.75 34.107049608355055)"><path d="M17.05 0 C67.48 0.66, 119.16 -2.54, 174.45 0 M17.05 0 C53.63 0.45, 90.42 1.11, 174.45 0 M174.45 0 C185.19 -0.28, 190.79 6.67, 191.5 17.05 M174.45 0 C187.1 0.84, 191.09 3.65, 191.5 17.05 M191.5 17.05 C191.75 30.25, 192.31 41.19, 191.5 51.16 M191.5 17.05 C192.33 28.71, 192.54 41.07, 191.5 51.16 M191.5 51.16 C192.91 62.8, 185.51 68.93, 174.45 68.21 M191.5 51.16 C191.15 61.5, 184.38 67.62, 174.45 68.21 M174.45 68.21 C130.4 68.28, 82.09 66.51, 17.05 68.21 M174.45 68.21 C142.29 68.89, 110.7 68.73, 17.05 68.21 M17.05 68.21 C4.99 68.71, 1.96 60.82, 0 51.16 M17.05 68.21 C6.63 69.67, 2.18 60.32, 0 51.16 M0 51.16 C1.01 42.44, 2.04 32.85, 0 17.05 M0 51.16 C-0.95 40.64, 0.52 28.16, 0 17.05 M0 17.05 C1.31 3.83, 6.42 1.88, 17.05 0 M0 17.05 C1.04 6.14, 4.12 -1.31, 17.05 0" stroke="#1e1e1e" stroke-width="2" fill="none"></path></g><g transform="translate(768.9600143432617 274.60704999999996) rotate(0 14.539985656738281 12.5)"><text x="14.539985656738281" y="17.52" font-family="Virgil, Segoe UI Emoji" font-size="20px" fill="#1e1e1e" text-anchor="middle" style="white-space: pre;" direction="ltr" dominant-baseline="alphabetic">jmp</text></g><g stroke-linecap="round"><g transform="translate(215 134.17395997590683) rotate(0 61.01780500000001 -38.24496545232873)"><path d="M-0.81 0.36 C7.23 -8.17, 27.28 -38.34, 47.91 -51.16 C68.54 -63.99, 110.77 -72.21, 122.96 -76.59 M0.96 -0.5 C8.87 -9.39, 26.62 -40.55, 46.91 -53.02 C67.2 -65.49, 110.36 -71.35, 122.68 -75.33" stroke="#1e1e1e" stroke-width="2" fill="none"></path></g><g transform="translate(215 134.17395997590683) rotate(0 61.01780500000001 -38.24496545232873)"><path d="M101.76 -61.64 C108.03 -65.36, 113.95 -67.37, 122.68 -75.33 M101.76 -61.64 C108.17 -64.48, 113.99 -69.65, 122.68 -75.33" stroke="#1e1e1e" stroke-width="2" fill="none"></path></g><g transform="translate(215 134.17395997590683) rotate(0 61.01780500000001 -38.24496545232873)"><path d="M97.86 -78.29 C105.18 -77.47, 112.17 -74.97, 122.68 -75.33 M97.86 -78.29 C105.27 -76.25, 112.23 -76.56, 122.68 -75.33" stroke="#1e1e1e" stroke-width="2" fill="none"></path></g></g><mask></mask><g stroke-linecap="round"><g transform="translate(676 286.5) rotate(0 -229.25 -10.68412955395354)"><path d="M-0.7 0.97 C-42.98 3.57, -177.34 22.12, -253.78 15.74 C-330.23 9.35, -425.2 -28.59, -459.36 -37.35 M1.13 0.44 C-41.28 3.21, -178.28 23.21, -254.62 17.14 C-330.96 11.06, -422.92 -26.65, -456.92 -36.02" stroke="#1e1e1e" stroke-width="2" fill="none"></path></g><g transform="translate(676 286.5) rotate(0 -229.25 -10.68412955395354)"><path d="M-431.93 -36.85 C-437.6 -36.4, -446.96 -37.95, -456.92 -36.02 M-431.93 -36.85 C-439.04 -37.04, -446.07 -36.09, -456.92 -36.02" stroke="#1e1e1e" stroke-width="2" fill="none"></path></g><g transform="translate(676 286.5) rotate(0 -229.25 -10.68412955395354)"><path d="M-437.25 -20.6 C-441.39 -24.85, -449.19 -31.15, -456.92 -36.02 M-437.25 -20.6 C-442.72 -25.71, -448.14 -29.66, -456.92 -36.02" stroke="#1e1e1e" stroke-width="2" fill="none"></path></g></g><mask></mask><g stroke-linecap="round" transform="translate(348.875 100.5) rotate(0 95.75 60)"><path d="M120 15.25 C130.66 20.44, 141.82 30.44, 167.5 45.75 M120 15.25 C135.57 24.84, 152.51 35.31, 167.5 45.75 M167.5 45.75 C189.94 60.59, 193.33 62.14, 167.5 76.25 M167.5 45.75 C191.48 61.74, 191.36 60.18, 167.5 76.25 M167.5 76.25 C154.02 84.97, 137.02 96.12, 120 104.75 M167.5 76.25 C152.67 86.62, 136.02 96.09, 120 104.75 M120 104.75 C94.07 118.24, 97.69 121.34, 72 104.75 M120 104.75 C94.01 120.38, 95.94 118.77, 72 104.75 M72 104.75 C62.37 97.39, 50.58 92.18, 24 76.25 M72 104.75 C59.24 97.79, 47 89.72, 24 76.25 M24 76.25 C1.39 61.64, -1.85 59.67, 24 45.75 M24 76.25 C2.26 62.38, 2.27 61.73, 24 45.75 M24 45.75 C32.93 37.59, 46.81 33.15, 72 15.25 M24 45.75 C43.2 33.84, 59.71 21.53, 72 15.25 M72 15.25 C95.2 0.17, 97.82 0.9, 120 15.25 M72 15.25 C96.09 0.93, 96.01 -1.06, 120 15.25" stroke="#1e1e1e" stroke-width="2" fill="none"></path></g><g transform="translate(410.7500228881836 135.5) rotate(0 33.999977111816406 25)"><text x="33.999977111816406" y="17.52" font-family="Virgil, Segoe UI Emoji" font-size="20px" fill="#1e1e1e" text-anchor="middle" style="white-space: pre;" direction="ltr" dominant-baseline="alphabetic">if call </text><text x="33.999977111816406" y="42.519999999999996" font-family="Virgil, Segoe UI Emoji" font-size="20px" fill="#1e1e1e" text-anchor="middle" style="white-space: pre;" direction="ltr" dominant-baseline="alphabetic">tramp</text></g><g stroke-linecap="round"><g transform="translate(547.1900756477878 163.2442055669198) rotate(0.4013109294786997 62.390724402756405 -55.64123266674483)"><path d="M-0.57 1.14 C7.07 -1.79, 36.4 -7.61, 46.79 -18.67 C57.17 -29.74, 55.38 -52.4, 61.76 -65.24 C68.14 -78.08, 74.37 -88.12, 85.06 -95.71 C95.75 -103.3, 119.37 -108.18, 125.92 -110.81 M1.34 0.69 C8.79 -2.46, 36.19 -9.44, 46.22 -20.3 C56.25 -31.15, 55.52 -51.99, 61.53 -64.46 C67.53 -76.93, 71.66 -87.48, 82.25 -95.09 C92.84 -102.71, 117.83 -107.24, 125.05 -110.17" stroke="#1e1e1e" stroke-width="2" fill="none"></path></g><g transform="translate(547.1900756477878 163.2442055669198) rotate(0.4013109294786997 62.390724402756405 -55.64123266674483)"><path d="M107.35 -97.03 C116.12 -100.75, 122.56 -105.27, 125.05 -110.17 M107.35 -97.03 C111.99 -99.33, 114.48 -102.73, 125.05 -110.17" stroke="#1e1e1e" stroke-width="2" fill="none"></path></g><g transform="translate(547.1900756477878 163.2442055669198) rotate(0.4013109294786997 62.390724402756405 -55.64123266674483)"><path d="M103.05 -111.48 C113.32 -109.67, 121.4 -108.68, 125.05 -110.17 M103.05 -111.48 C108.75 -110.63, 112.17 -110.92, 125.05 -110.17" stroke="#1e1e1e" stroke-width="2" fill="none"></path></g></g><mask></mask></svg>